<svg width="48" height="96" version="1.1" xmlns="http://www.w3.org/2000/svg">
  <style>
    .primary { fill: rgb(0,0,0); stroke: rgb(0,0,0); }
    .accent  { fill: rgb(48,76,79); stroke: rgb(48,76,79); }
    @media (prefers-color-scheme: dark) {
      .primary { fill: rgb(255,255,255); stroke: rgb(255,255,255); }
      .accent  { fill: rgb(100,180,186); stroke: rgb(100,180,186); }
    }
  </style>
  <path class="primary" stroke-width="1" opacity="0" d="M 0 0 L 48 0 L 48 46 L 0 46 L 0 0 Z " />
  <path class="accent" stroke-width="1" opacity="1" d="M 0 46 L 6.5 46 L 7.5 47 L 8.5 46 L 21.5 46 L 23.5 47 L 24.5 46 L 48 46 Q 49.3 49.3 44.5 48 L 42.5 48 L 0.5 48 L 0 46 Z " />
  <path class="accent" stroke-width="1" opacity="1" d="M 9.5 61 L 8.5 63 L 9.5 61 Z " />
  <path class="accent" stroke-width="1" opacity="1" d="M 38.5 61 L 39.5 63 L 38.5 61 Z " />
  <path class="accent" stroke-width="1" opacity="1" d="M 11.5 63 L 13.5 66 L 11.5 63 Z " />
  <path class="accent" stroke-width="1" opacity="1" d="M 36.5 63 L 34.5 66 L 36.5 63 Z " />
  <path class="accent" stroke-width="1" opacity="1" d="M 22.5 65 L 26 65.5 L 22.5 66 L 22.5 65 Z " />
  <path class="accent" stroke-width="1" opacity="1" d="M 10.5 69 L 10 70.5 L 9.5 72 L 8.5 70 L 10.5 69 Z " />
  <path class="accent" stroke-width="1" opacity="1" d="M 37.5 69 L 40 70.5 L 38 71.5 L 37.5 69 Z " />
  <path class="accent" stroke-width="1" opacity="1" d="M 25.5 71 Q 27.8 70.3 27 72.5 L 25.5 71 Z " />
  <path class="accent" stroke-width="1" opacity="1" d="M 8.5 73 L 10.5 73 L 12 73.5 L 9.5 75 L 8.5 73 Z " />
  <path class="accent" stroke-width="1" opacity="1" d="M 36.5 73 L 38.5 74 L 40 73.5 Q 38.8 76.2 37.5 74 L 36.5 73 Z " />
  <path class="accent" stroke-width="1" opacity="1" d="M 14.5 79 L 15.5 81 L 14.5 79 Z " />
  <path class="accent" stroke-width="1" opacity="1" d="M 19.5 84 L 22 85.5 L 22.5 84 L 26.5 86 L 29 84.5 Q 27.3 88.8 25.5 86 L 21.5 87 L 19.5 84 Z " />
  <path class="primary" stroke-width="1" opacity="1" d="M 43.5 47 L 48 48 L 48 96 L 0 96 L 0 48 L 42.5 48 L 43.5 47 Z M 23 65 L 23 66 L 26 66 L 23 65 Z M 9 70 L 10 72 Q 11 69 9 70 Z M 38 70 L 38 72 L 40 71 L 38 70 Z M 26 71 L 27 73 Q 28 70 26 71 Z M 23 84 L 22 86 L 26 86 L 23 84 Z " />
</svg>
